<svg class="border shadow-md" viewBox="0 0 602.8 602.8" xmlns="http://www.w3.org/2000/svg" preserveAspectRatio="none" style="width: 602.8px; height: 602.8px;"><rect class="bg" id="bg" x="0" y="0" width="602.8" height="602.8" fill="#ffffff"/><path d="M 0 -60.279999999999994 L 0 -60.28&#10;                L 49.00 -28.28&#10;                L 120.55999999999999 -60.28 L 120.55999999999999 -60.28&#10;                L 160.75 -30.14&#10;                L 241.11999999999998 -60.28 L 241.11999999999998 -60.28&#10;                L 328.12 -30.14&#10;                L 361.67999999999995 -60.28 L 361.67999999999995 -60.28&#10;                L 401.87 -10.28&#10;                L 482.23999999999995 -60.28 L 482.23999999999995 -60.28&#10;                L 522.43 -13.28&#10;                L 602.8 -60.28 L 602.8 -60.28&#10;                L 680.80 -30.14&#10;                L 723.3599999999999 -60.28  V 602.80 H 0 V -60.28 Z" fill="#00F4FF"/><path d="M 0 0 L 0 0.00&#10;                L 57.00 45.00&#10;                L 120.55999999999999 0.00 L 120.55999999999999 0.00&#10;                L 191.56 30.14&#10;                L 241.11999999999998 0.00 L 241.11999999999998 0.00&#10;                L 281.31 47.00&#10;                L 361.67999999999995 0.00 L 361.67999999999995 0.00&#10;                L 426.68 43.00&#10;                L 482.23999999999995 0.00 L 482.23999999999995 0.00&#10;                L 525.24 38.00&#10;                L 602.8 0.00 L 602.8 0.00&#10;                L 669.80 42.00&#10;                L 723.3599999999999 0.00  V 602.80 H 0 V 0.00 Z" fill="#00e6ff"/><path d="M 0 60.279999999999994 L 0 60.28&#10;                L 40.19 90.42&#10;                L 120.55999999999999 60.28 L 120.55999999999999 60.28&#10;                L 196.56 90.42&#10;                L 241.11999999999998 60.28 L 241.11999999999998 60.28&#10;                L 307.12 117.28&#10;                L 361.67999999999995 60.28 L 361.67999999999995 60.28&#10;                L 422.68 90.42&#10;                L 482.23999999999995 60.28 L 482.23999999999995 60.28&#10;                L 544.24 110.28&#10;                L 602.8 60.28 L 602.8 60.28&#10;                L 673.80 90.42&#10;                L 723.3599999999999 60.28  V 602.80 H 0 V 60.28 Z" fill="#00d8ff"/><path d="M 0 120.55999999999999 L 0 120.56&#10;                L 54.00 177.56&#10;                L 120.55999999999999 120.56 L 120.55999999999999 120.56&#10;                L 179.56 150.70&#10;                L 241.11999999999998 120.56 L 241.11999999999998 120.56&#10;                L 281.31 157.56&#10;                L 361.67999999999995 120.56 L 361.67999999999995 120.56&#10;                L 401.87 174.56&#10;                L 482.23999999999995 120.56 L 482.23999999999995 120.56&#10;                L 545.24 150.70&#10;                L 602.8 120.56 L 602.8 120.56&#10;                L 642.99 150.70&#10;                L 723.3599999999999 120.56  V 602.80 H 0 V 120.56 Z" fill="#00caff"/><path d="M 0 180.83999999999997 L 0 180.84&#10;                L 49.00 210.98&#10;                L 120.55999999999999 180.84 L 120.55999999999999 180.84&#10;                L 162.56 210.98&#10;                L 241.11999999999998 180.84 L 241.11999999999998 180.84&#10;                L 323.12 214.84&#10;                L 361.67999999999995 180.84 L 361.67999999999995 180.84&#10;                L 445.68 210.98&#10;                L 482.23999999999995 180.84 L 482.23999999999995 180.84&#10;                L 522.43 236.84&#10;                L 602.8 180.84 L 602.8 180.84&#10;                L 680.80 219.84&#10;                L 723.3599999999999 180.84  V 602.80 H 0 V 180.84 Z" fill="#00bcff"/><path d="M 0 241.11999999999998 L 0 241.12&#10;                L 40.19 271.26&#10;                L 120.55999999999999 241.12 L 120.55999999999999 241.12&#10;                L 180.56 295.12&#10;                L 241.11999999999998 241.12 L 241.11999999999998 241.12&#10;                L 281.31 271.26&#10;                L 361.67999999999995 241.12 L 361.67999999999995 241.12&#10;                L 447.68 280.12&#10;                L 482.23999999999995 241.12 L 482.23999999999995 241.12&#10;                L 569.24 291.12&#10;                L 602.8 241.12 L 602.8 241.12&#10;                L 650.80 271.26&#10;                L 723.3599999999999 241.12  V 602.80 H 0 V 241.12 Z" fill="#00aeff"/><path d="M 0 301.4 L 0 301.40&#10;                L 66.00 359.40&#10;                L 120.55999999999999 301.40 L 120.55999999999999 301.40&#10;                L 169.56 344.40&#10;                L 241.11999999999998 301.40 L 241.11999999999998 301.40&#10;                L 281.31 331.54&#10;                L 361.67999999999995 301.40 L 361.67999999999995 301.40&#10;                L 401.87 334.40&#10;                L 482.23999999999995 301.40 L 482.23999999999995 301.40&#10;                L 522.43 336.40&#10;                L 602.8 301.40 L 602.8 301.40&#10;                L 642.99 331.54&#10;                L 723.3599999999999 301.40  V 602.80 H 0 V 301.40 Z" fill="#00a0ff"/><path d="M 0 361.67999999999995 L 0 361.68&#10;                L 55.00 399.68&#10;                L 120.55999999999999 361.68 L 120.55999999999999 361.68&#10;                L 160.75 397.68&#10;                L 241.11999999999998 361.68 L 241.11999999999998 361.68&#10;                L 294.12 416.68&#10;                L 361.67999999999995 361.68 L 361.67999999999995 361.68&#10;                L 410.68 391.82&#10;                L 482.23999999999995 361.68 L 482.23999999999995 361.68&#10;                L 537.24 394.68&#10;                L 602.8 361.68 L 602.8 361.68&#10;                L 649.80 391.82&#10;                L 723.3599999999999 361.68  V 602.80 H 0 V 361.68 Z" fill="#0092ff"/><path d="M 0 421.96 L 0 421.96&#10;                L 40.19 462.96&#10;                L 120.55999999999999 421.96 L 120.55999999999999 421.96&#10;                L 209.56 480.96&#10;                L 241.11999999999998 421.96 L 241.11999999999998 421.96&#10;                L 281.31 452.10&#10;                L 361.67999999999995 421.96 L 361.67999999999995 421.96&#10;                L 437.68 472.96&#10;                L 482.23999999999995 421.96 L 482.23999999999995 421.96&#10;                L 557.24 480.96&#10;                L 602.8 421.96 L 602.8 421.96&#10;                L 642.99 462.96&#10;                L 723.3599999999999 421.96  V 602.80 H 0 V 421.96 Z" fill="#0084ff"/><path d="M 0 482.23999999999995 L 0 482.24&#10;                L 40.19 512.38&#10;                L 120.55999999999999 482.24 L 120.55999999999999 482.24&#10;                L 160.75 520.24&#10;                L 241.11999999999998 482.24 L 241.11999999999998 482.24&#10;                L 288.12 536.24&#10;                L 361.67999999999995 482.24 L 361.67999999999995 482.24&#10;                L 441.68 512.38&#10;                L 482.23999999999995 482.24 L 482.23999999999995 482.24&#10;                L 522.43 527.24&#10;                L 602.8 482.24 L 602.8 482.24&#10;                L 663.80 512.38&#10;                L 723.3599999999999 482.24  V 602.80 H 0 V 482.24 Z" fill="#0076ff"/><path d="M 0 542.52 L 0 542.52&#10;                L 40.19 576.52&#10;                L 120.55999999999999 542.52 L 120.55999999999999 542.52&#10;                L 178.56 572.66&#10;                L 241.11999999999998 542.52 L 241.11999999999998 542.52&#10;                L 281.31 592.52&#10;                L 361.67999999999995 542.52 L 361.67999999999995 542.52&#10;                L 401.87 572.66&#10;                L 482.23999999999995 542.52 L 482.23999999999995 542.52&#10;                L 556.24 572.66&#10;                L 602.8 542.52 L 602.8 542.52&#10;                L 672.80 572.66&#10;                L 723.3599999999999 542.52  V 602.80 H 0 V 542.52 Z" fill="#0068ff"/></svg>